# xmcd CD database file
#
# Track frame offsets:
#	150
#	5587
#	20942
#	47575
#	81610
#	101152
#	122992
#	144020
#
# Disc length: 2248 seconds
#
# Revision: 0
# Processed by: cddbd v1.5.1PL2 Copyright (c) Steve Scherf et al.
# Submitted via: CDex 1.51
#
DISCID=6c08c608
DTITLE=Luis-Mary - ESCAPE
DYEAR=1991
DGENRE=Rock
TTITLE0=eins-zwei-drei-vier
TTITLE1=New Rose
TTITLE2=Crime of Love
TTITLE3=Jeanier
TTITLE4=ESCAPE
TTITLE5=Believe in Mine
TTITLE6=L-O-V-E
TTITLE7=Lainy Blue
EXTD=YEAR: 1991
EXTT0=
EXTT1=
EXTT2=
EXTT3=
EXTT4=
EXTT5=
EXTT6=
EXTT7=
PLAYORDER=
